<svg xmlns="http://www.w3.org/2000/svg" viewBox="0 0 32 32" fill="none">
  <defs>
    <linearGradient id="g" x1="0%" y1="0%" x2="100%" y2="100%">
      <stop offset="0%" stop-color="#5eead4"/>
      <stop offset="50%" stop-color="#22d3ee"/>
      <stop offset="100%" stop-color="#2563eb"/>
    </linearGradient>
  </defs>
  <path fill="url(#g)" d="M8 4c6 0 10 3.5 10 9.5 0 4-2.5 6.5-6 7.5 4 .8 7 4 7 8.5 0 6.5-5.5 10.5-12 10.5H4V4h4zm0 14h3.5c3 0 5-1.5 5-4.5S14.5 9 11.5 9H8v9zm0 10h4c3.5 0 6-2 6-5.5S15.5 17 12 17H8v11z"/>
</svg>
